<svg width="116" height="20" viewBox="0 0 116 20" fill="none" xmlns="http://www.w3.org/2000/svg">
<path fill-rule="evenodd" clip-rule="evenodd" d="M58.7645 0.152715C58.9013 0.0527562 59.0666 -0.000771782 59.2361 8.40909e-06C59.3159 0.000467479 59.3951 0.0129483 59.4711 0.0370283C59.4711 0.0370283 61.1842 0.517532 61.5864 2.18418C61.7983 3.06072 62.2746 3.41921 62.9023 3.66498C63.2485 3.80056 63.625 3.86643 63.9831 3.90406V3.15904C63.9831 2.28636 64.6917 1.57952 65.5665 1.57952C66.4413 1.57952 67.1498 2.28636 67.1498 3.15904V3.9488V4.73855C67.1498 4.948 67.0664 5.14887 66.9179 5.29697C66.7695 5.44508 66.5681 5.52829 66.3581 5.52831C65.0408 5.76287 64.7748 7.17574 64.7748 7.89758C64.7748 10.6572 66.8976 12.5644 68.6404 12.63H68.642C68.7538 12.617 68.8672 12.628 68.9745 12.6623C69.0817 12.6965 69.1805 12.7532 69.264 12.8285C69.3476 12.9039 69.4141 12.9961 69.4591 13.0991C69.5041 13.2021 69.5265 13.3135 69.5249 13.4259C69.5249 13.6676 69.5813 13.7874 69.7274 13.9735C69.8716 14.1571 70.1215 14.371 70.4235 14.6294L70.4356 14.6398C71.0503 15.1661 71.8999 16.0166 71.8999 17.3747C71.8999 18.3204 71.2893 19.089 70.5949 19.4C69.9005 19.711 69.1581 19.7439 68.4765 19.7439C66.0661 19.7439 64.3824 18.2994 63.4693 17.516C63.3455 17.4097 63.2358 17.3156 63.1404 17.2389C62.8218 16.9827 62.3649 16.5282 61.7302 15.8908C61.1789 15.3371 60.5223 14.6658 59.8326 13.9609C59.7283 13.8542 59.6232 13.7467 59.5175 13.6388C57.9104 11.9964 56.1699 10.228 55.287 9.44008C53.1586 7.54089 52.9042 4.82031 52.9042 4.82031C52.8854 4.6415 52.9284 4.46165 53.0259 4.31048C53.1235 4.15932 53.2698 4.04587 53.4408 3.9889L55.4633 3.31637C55.6029 2.95158 55.8491 2.43787 56.4219 1.94818C57.1183 1.3529 58.7645 0.152715 58.7645 0.152715ZM60.0463 2.55438C59.9401 2.11415 59.5953 1.87101 59.3196 1.71835C59.2899 1.74036 59.2571 1.76463 59.2216 1.79087C58.7654 2.12832 57.8705 2.79029 57.4517 3.14824C57.2532 3.31798 57.0978 3.57896 56.9879 3.80072L58.2187 5.35092C58.2865 5.4319 58.3373 5.5256 58.3682 5.6265C58.3991 5.7274 58.4094 5.83345 58.3986 5.93839C58.3877 6.04334 58.3559 6.14505 58.305 6.23752C58.254 6.32999 58.1851 6.41135 58.1021 6.47679C58.0192 6.54223 57.9239 6.59043 57.822 6.61854C57.72 6.64665 57.6135 6.6541 57.5086 6.64046C57.4037 6.62681 57.3027 6.59235 57.2114 6.53909C57.1201 6.48584 57.0404 6.41488 56.977 6.33041L55.8143 4.86504L54.6345 5.25837C54.7743 5.91979 55.1171 7.16767 56.3431 8.26161C57.3197 9.13304 59.0105 10.861 60.6061 12.4917L60.6494 12.5359L60.7519 12.6406C61.5191 13.4247 62.2535 14.1753 62.8528 14.7771C63.4787 15.4057 63.9957 15.8978 64.1346 16.0096C64.2572 16.1081 64.3848 16.2149 64.5181 16.3266C65.3447 17.0187 66.3909 17.8948 67.8178 18.1104C65.5171 16.4437 62.0217 12.6717 60.8164 10.2669C61.0183 10.5054 61.7141 10.9198 61.973 10.7358C62.254 10.5352 62.3064 10.1616 62.1322 9.88123C61.9454 9.58635 61.6113 9.2499 61.2634 8.89954C60.6645 8.29653 60.0247 7.6523 60.0247 7.10783C60.0247 6.56763 60.373 6.31807 60.8164 6.31807C61.0083 6.31807 61.1882 6.46492 61.3923 6.63147C61.6596 6.84966 61.9683 7.10166 62.3997 7.10166C62.7346 7.10166 63.1914 6.89459 63.1914 6.31807C63.1914 5.63414 62.7757 5.32454 62.5528 5.20593C62.5211 5.19531 62.4898 5.18653 62.4586 5.17776C62.4139 5.16524 62.3694 5.15275 62.324 5.13497C61.3669 4.76019 60.3799 3.93418 60.0463 2.55438ZM67.3735 6.54676C67.5196 6.39667 67.7194 6.31054 67.9291 6.30727C68.035 6.30562 68.1402 6.32519 68.2384 6.36482C68.3366 6.40444 68.4258 6.46333 68.5008 6.53797C68.5758 6.61262 68.635 6.70152 68.6749 6.7994C68.7148 6.89729 68.7346 7.00216 68.7332 7.10783C68.7332 7.46254 68.6259 7.79127 68.3729 8.10736C68.1199 8.42346 67.6617 8.68734 67.1498 8.68734C67.0449 8.68882 66.9408 8.66949 66.8434 8.63046C66.7461 8.59144 66.6574 8.5335 66.5827 8.46002C66.508 8.38653 66.4487 8.29897 66.4082 8.20242C66.3677 8.10586 66.3469 8.00225 66.3469 7.89758C66.3469 7.79292 66.3677 7.6893 66.4082 7.59275C66.4487 7.49619 66.508 7.40863 66.5827 7.33515C66.6574 7.26167 66.7461 7.20373 66.8434 7.1647C66.9408 7.12568 67.0449 7.10635 67.1498 7.10783C67.1469 6.89863 67.2274 6.69685 67.3735 6.54676ZM68.1652 8.91603C68.3113 8.76594 68.5111 8.67981 68.7208 8.67654C68.8267 8.67489 68.9319 8.69446 69.0301 8.73409C69.1283 8.77372 69.2175 8.8326 69.2925 8.90725C69.3675 8.9819 69.4267 9.07079 69.4666 9.16868C69.5065 9.26656 69.5263 9.37144 69.5249 9.4771C69.5249 9.83181 69.4176 10.1605 69.1646 10.4766C68.9116 10.7927 68.4534 11.0566 67.9415 11.0566C67.8366 11.0581 67.7324 11.0388 67.6351 10.9997C67.5377 10.9607 67.4491 10.9028 67.3744 10.8293C67.2997 10.7558 67.2404 10.6682 67.1999 10.5717C67.1594 10.4751 67.1385 10.3715 67.1385 10.2669C67.1385 10.1622 67.1594 10.0586 67.1999 9.96202C67.2404 9.86547 67.2997 9.7779 67.3744 9.70442C67.4491 9.63094 67.5377 9.573 67.6351 9.53398C67.7324 9.49495 67.8366 9.47562 67.9415 9.4771C67.9386 9.26791 68.0191 9.06612 68.1652 8.91603ZM68.4811 14.9483C68.3273 14.7525 68.1911 14.5155 68.093 14.2496C67.6045 14.3022 67.1498 14.4625 67.1498 15.01C67.1498 16.6108 68.9466 17.4764 70.1186 17.8775C70.2742 17.7926 70.3165 17.7034 70.3165 17.3747C70.3165 16.6175 69.992 16.3399 69.44 15.8676L69.4058 15.8383C69.3642 15.8027 69.3214 15.7667 69.2778 15.7299C69.0217 15.5139 68.7368 15.2738 68.4811 14.9483ZM71.0656 19.17C71.0724 19.1571 71.0793 19.1443 71.0866 19.1316C71.0777 19.1465 71.0696 19.1616 71.0615 19.1766C71.0485 19.2006 71.0357 19.2244 71.0201 19.2473C71.0376 19.2223 71.0516 19.1962 71.0656 19.17ZM70.853 19.4481C70.8648 19.4335 70.8765 19.4189 70.8887 19.4046C70.8757 19.4199 70.8636 19.4355 70.8516 19.4511C70.8312 19.4774 70.811 19.5037 70.7866 19.528C70.7819 19.5327 70.7759 19.5371 70.7711 19.5419C70.8011 19.5125 70.8271 19.4803 70.853 19.4481ZM67.7049 19.946C67.731 19.9588 67.7566 19.9703 67.7821 19.9816C67.7567 19.9702 67.7309 19.9582 67.7049 19.946ZM67.824 20C67.8101 19.9941 67.7962 19.9879 67.7821 19.9816C67.796 19.9878 67.81 19.9939 67.824 20ZM2.98 13.2599H0C0 15.0065 0.486667 16.2866 1.46 17.0999C2.44667 17.9132 3.94 18.3199 5.94 18.3199C6.62 18.3199 7.30667 18.2332 8 18.0599C8.69333 17.8999 9.31333 17.6332 9.86 17.2599C10.42 16.8865 10.8733 16.3999 11.22 15.7999C11.58 15.1999 11.76 14.4732 11.76 13.6199C11.76 12.9799 11.6667 12.4399 11.48 11.9999C11.2933 11.5599 11.0267 11.1865 10.68 10.8799C10.3467 10.5732 9.94667 10.3265 9.48 10.1399C9.01333 9.93988 8.5 9.76655 7.94 9.61988C7.7 9.56655 7.38667 9.49988 7 9.41988C6.61333 9.32655 6.23333 9.20655 5.86 9.05988C5.5 8.89988 5.18667 8.70655 4.92 8.47988C4.66667 8.23988 4.54 7.94655 4.54 7.59988C4.54 7.26655 4.61333 6.98655 4.76 6.75988C4.90667 6.53322 5.1 6.35322 5.34 6.21988C5.58 6.07322 5.84667 5.97322 6.14 5.91988C6.44667 5.85322 6.74667 5.81988 7.04 5.81988C7.4 5.81988 7.74 5.85988 8.06 5.93988C8.38 6.00655 8.65333 6.12655 8.88 6.29988C9.12 6.47322 9.3 6.69988 9.42 6.97988C9.55333 7.24655 9.61333 7.57988 9.6 7.97988H12.58C12.58 7.15322 12.4333 6.45322 12.14 5.87988C11.86 5.29322 11.4733 4.81322 10.98 4.43988C10.5 4.06655 9.93333 3.79988 9.28 3.63988C8.64 3.46655 7.95333 3.37988 7.22 3.37988C6.52667 3.37988 5.84 3.46655 5.16 3.63988C4.49333 3.79988 3.89333 4.05988 3.36 4.41988C2.82667 4.76655 2.39333 5.21988 2.06 5.77988C1.72667 6.33988 1.56 7.01988 1.56 7.81988C1.56 8.43322 1.66 8.95321 1.86 9.37988C2.07333 9.80655 2.34667 10.1665 2.68 10.4599C3.02667 10.7532 3.41333 10.9932 3.84 11.1799C4.26667 11.3665 4.70667 11.5265 5.16 11.6599C5.6 11.7932 6.03333 11.9199 6.46 12.0399C6.9 12.1599 7.28667 12.2999 7.62 12.4599C7.96667 12.6199 8.24667 12.8132 8.46 13.0399C8.67333 13.2532 8.78 13.5332 8.78 13.8799C8.78 14.2399 8.69333 14.5465 8.52 14.7999C8.36 15.0532 8.14667 15.2599 7.88 15.4199C7.62667 15.5799 7.34 15.6999 7.02 15.7799C6.7 15.8599 6.38 15.8999 6.06 15.8999C5.60667 15.8999 5.18667 15.8599 4.8 15.7799C4.41333 15.6866 4.08 15.5399 3.8 15.3399C3.52 15.1399 3.30667 14.8732 3.16 14.5399C3.01333 14.1932 2.95333 13.7665 2.98 13.2599ZM18.4288 6.35988L15.9888 17.9999H19.1488L21.5888 6.35988H25.8687L26.4288 3.71988H14.5087L13.9487 6.35988H18.4288ZM25.0353 17.9999L28.0153 3.71988H38.9153L38.3753 6.35988H30.6153L29.9753 9.41988H37.1553L36.6353 11.8599H29.4553L28.7153 15.3599H36.5953L36.0353 17.9999H25.0353ZM41.3352 3.71988L38.3752 17.9999H41.4952L42.5752 12.8799H46.4552C47.2018 12.8799 47.9085 12.7665 48.5752 12.5399C49.2418 12.3132 49.8285 11.9865 50.3352 11.5599C50.8552 11.1332 51.2618 10.6132 51.5552 9.99988C51.8618 9.37322 52.0152 8.66655 52.0152 7.87988C52.0152 7.09322 51.8885 6.43322 51.6352 5.89988C51.3952 5.36655 51.0552 4.93988 50.6152 4.61988C50.1752 4.29988 49.6485 4.07322 49.0352 3.93988C48.4352 3.79322 47.7752 3.71988 47.0552 3.71988H41.3352ZM43.0952 10.4399L43.9752 6.15988H46.6552C46.9352 6.15988 47.2018 6.18655 47.4552 6.23988C47.7218 6.29322 47.9618 6.38655 48.1752 6.51988C48.3885 6.63988 48.5552 6.81988 48.6752 7.05988C48.8085 7.28655 48.8752 7.57988 48.8752 7.93988C48.8752 8.79322 48.6418 9.42655 48.1752 9.83988C47.7218 10.2399 47.0952 10.4399 46.2952 10.4399H43.0952ZM73.3799 18.0002L81.7999 3.72021H85.0199L87.3999 18.0002H84.2799L83.8199 14.8202H78.4799L76.6799 18.0002H73.3799ZM82.7999 6.80022L79.7199 12.4802H83.5399L82.8399 6.80022H82.7999ZM88.5313 18.0002L91.4913 3.72021H97.2113C97.9313 3.72021 98.5913 3.79355 99.1913 3.94022C99.8046 4.07355 100.331 4.30022 100.771 4.62021C101.211 4.94021 101.551 5.36688 101.791 5.90022C102.045 6.43355 102.171 7.09355 102.171 7.88021C102.171 8.66688 102.018 9.37355 101.711 10.0002C101.418 10.6135 101.011 11.1335 100.491 11.5602C99.9846 11.9869 99.398 12.3135 98.7313 12.5402C98.0646 12.7669 97.358 12.8802 96.6113 12.8802H92.7313L91.6513 18.0002H88.5313ZM94.1313 6.16022L93.2513 10.4402H96.4513C97.2513 10.4402 97.878 10.2402 98.3313 9.84021C98.798 9.42688 99.0313 8.79355 99.0313 7.94022C99.0313 7.58021 98.9646 7.28688 98.8313 7.06021C98.7113 6.82022 98.5446 6.64022 98.3313 6.52022C98.118 6.38688 97.878 6.29355 97.6113 6.24022C97.358 6.18688 97.0913 6.16022 96.8113 6.16022H94.1313ZM104.831 3.72021L101.871 18.0002H104.991L106.071 12.8802H109.951C110.698 12.8802 111.404 12.7669 112.071 12.5402C112.738 12.3135 113.324 11.9869 113.831 11.5602C114.351 11.1335 114.758 10.6135 115.051 10.0002C115.358 9.37355 115.511 8.66688 115.511 7.88021C115.511 7.09355 115.384 6.43355 115.131 5.90022C114.891 5.36688 114.551 4.94021 114.111 4.62021C113.671 4.30022 113.144 4.07355 112.531 3.94022C111.931 3.79355 111.271 3.72021 110.551 3.72021H104.831ZM106.591 10.4402L107.471 6.16022H110.151C110.431 6.16022 110.698 6.18688 110.951 6.24022C111.218 6.29355 111.458 6.38688 111.671 6.52022C111.884 6.64022 112.051 6.82022 112.171 7.06021C112.304 7.28688 112.371 7.58021 112.371 7.94022C112.371 8.79355 112.138 9.42688 111.671 9.84021C111.218 10.2402 110.591 10.4402 109.791 10.4402H106.591Z" fill="black"/>
</svg>